<svg width="20" height="15" viewBox="0 0 20 15" fill="none" xmlns="http://www.w3.org/2000/svg">
<mask id="path-1-inside-1_264_2418" fill="white">
<path fill-rule="evenodd" clip-rule="evenodd" d="M8.01991 0H1.19177L0.0262386 1.09679H0V1.12148V11.7408C0 13.2395 1.215 14.4545 2.71378 14.4545H16.6041C18.1029 14.4545 19.3179 13.2395 19.3179 11.7408V3.81057C19.3179 2.31179 18.1029 1.09679 16.6041 1.09679H9.28143L8.01991 0Z"/>
</mask>
<path fill-rule="evenodd" clip-rule="evenodd" d="M8.01991 0H1.19177L0.0262386 1.09679H0V1.12148V11.7408C0 13.2395 1.215 14.4545 2.71378 14.4545H16.6041C18.1029 14.4545 19.3179 13.2395 19.3179 11.7408V3.81057C19.3179 2.31179 18.1029 1.09679 16.6041 1.09679H9.28143L8.01991 0Z" fill="white"/>
<path d="M1.19177 0V-0.673733H0.924615L0.730057 -0.49065L1.19177 0ZM8.01991 0L8.46196 -0.508439L8.27184 -0.673733H8.01991V0ZM0.0262386 1.09679V1.77052H0.293394L0.487951 1.58744L0.0262386 1.09679ZM0 1.09679V0.423057H-0.673733V1.09679H0ZM9.28143 1.09679L8.83938 1.60523L9.0295 1.77052H9.28143V1.09679ZM1.19177 0.673733H8.01991V-0.673733H1.19177V0.673733ZM0.487951 1.58744L1.65348 0.49065L0.730057 -0.49065L-0.435474 0.60614L0.487951 1.58744ZM0 1.77052H0.0262386V0.423057H0V1.77052ZM0.673733 1.12148V1.09679H-0.673733V1.12148H0.673733ZM0.673733 11.7408V1.12148H-0.673733V11.7408H0.673733ZM2.71378 13.7808C1.58709 13.7808 0.673733 12.8674 0.673733 11.7408H-0.673733C-0.673733 13.6116 0.84291 15.1283 2.71378 15.1283V13.7808ZM16.6041 13.7808H2.71378V15.1283H16.6041V13.7808ZM18.6442 11.7408C18.6442 12.8674 17.7308 13.7808 16.6041 13.7808V15.1283C18.475 15.1283 19.9916 13.6116 19.9916 11.7408H18.6442ZM18.6442 3.81057V11.7408H19.9916V3.81057H18.6442ZM16.6041 1.77052C17.7308 1.77052 18.6442 2.68388 18.6442 3.81057H19.9916C19.9916 1.9397 18.475 0.423057 16.6041 0.423057V1.77052ZM9.28143 1.77052H16.6041V0.423057H9.28143V1.77052ZM7.57786 0.508439L8.83938 1.60523L9.72347 0.588351L8.46196 -0.508439L7.57786 0.508439Z" fill="black" mask="url(#path-1-inside-1_264_2418)"/>
<mask id="path-3-inside-2_264_2418" fill="white">
<path fill-rule="evenodd" clip-rule="evenodd" d="M6.52665 7.70632C6.19776 7.31451 6 6.81107 6 6.26192C6 5.01269 7.02337 4 8.28576 4C8.96843 4 9.58121 4.29616 10 4.76573C10.4189 4.29616 11.0317 4 11.7143 4C12.9767 4 14.0001 5.01269 14.0001 6.26192C14.0001 6.81107 13.8023 7.31451 13.4734 7.70632H13.48L9.99945 11.7008L6.51884 7.70632H6.52665Z"/>
</mask>
<path fill-rule="evenodd" clip-rule="evenodd" d="M6.52665 7.70632C6.19776 7.31451 6 6.81107 6 6.26192C6 5.01269 7.02337 4 8.28576 4C8.96843 4 9.58121 4.29616 10 4.76573C10.4189 4.29616 11.0317 4 11.7143 4C12.9767 4 14.0001 5.01269 14.0001 6.26192C14.0001 6.81107 13.8023 7.31451 13.4734 7.70632H13.48L9.99945 11.7008L6.51884 7.70632H6.52665Z" fill="#FF8CAF"/>
<path d="M6.52665 7.70632V7.85501H6.8456L6.64054 7.61072L6.52665 7.70632ZM10 4.76573L9.88908 4.8647L10 4.9891L10.111 4.8647L10 4.76573ZM13.4734 7.70632L13.3596 7.61072L13.1545 7.85501H13.4734V7.70632ZM13.48 7.70632L13.5921 7.804L13.8068 7.55763H13.48V7.70632ZM9.99945 11.7008L9.88735 11.7984L9.99945 11.9271L10.1116 11.7984L9.99945 11.7008ZM6.51884 7.70632V7.55763H6.19206L6.40674 7.804L6.51884 7.70632ZM6.64054 7.61072C6.33318 7.24457 6.14869 6.77466 6.14869 6.26192H5.85131C5.85131 6.84748 6.06234 7.38445 6.41277 7.80191L6.64054 7.61072ZM6.14869 6.26192C6.14869 5.09628 7.10401 4.14869 8.28576 4.14869V3.85131C6.94272 3.85131 5.85131 4.92911 5.85131 6.26192H6.14869ZM8.28576 4.14869C8.92457 4.14869 9.49746 4.42564 9.88908 4.8647L10.111 4.66675C9.66496 4.16668 9.0123 3.85131 8.28576 3.85131V4.14869ZM10.111 4.8647C10.5026 4.42564 11.0755 4.14869 11.7143 4.14869V3.85131C10.9878 3.85131 10.3351 4.16668 9.88908 4.66675L10.111 4.8647ZM11.7143 4.14869C12.8961 4.14869 13.8514 5.09628 13.8514 6.26192H14.1488C14.1488 4.92911 13.0574 3.85131 11.7143 3.85131V4.14869ZM13.8514 6.26192C13.8514 6.77466 13.6669 7.24457 13.3596 7.61072L13.5873 7.80191C13.9377 7.38445 14.1488 6.84748 14.1488 6.26192H13.8514ZM13.48 7.55763H13.4734V7.85501H13.48V7.55763ZM10.1116 11.7984L13.5921 7.804L13.3679 7.60864L9.88735 11.6031L10.1116 11.7984ZM6.40674 7.804L9.88735 11.7984L10.1116 11.6031L6.63094 7.60864L6.40674 7.804ZM6.52665 7.55763H6.51884V7.85501H6.52665V7.55763Z" fill="black" mask="url(#path-3-inside-2_264_2418)"/>
</svg>
