<svg xmlns="http://www.w3.org/2000/svg" width="97" height="72" viewBox="0 0 97 72" fill="none">
  <mask id="path-1-inside-1_264_2674" fill="white">
    <path fill-rule="evenodd" clip-rule="evenodd" d="M39.9478 0H5.9363L0.129377 5.46444H0V5.58618V66.6507C0 69.6052 2.39511 72.0004 5.34964 72.0004H90.8742C93.8288 72.0004 96.2239 69.6052 96.2239 66.6507V10.8141C96.2239 7.85956 93.8288 5.46444 90.8742 5.46444H46.2329L39.9478 0Z"/>
  </mask>
  <path fill-rule="evenodd" clip-rule="evenodd" d="M39.9478 0H5.9363L0.129377 5.46444H0V5.58618V66.6507C0 69.6052 2.39511 72.0004 5.34964 72.0004H90.8742C93.8288 72.0004 96.2239 69.6052 96.2239 66.6507V10.8141C96.2239 7.85956 93.8288 5.46444 90.8742 5.46444H46.2329L39.9478 0Z" fill="#FFF382"/>
  <path d="M5.9363 0V-0.594406H5.7006L5.52895 -0.43288L5.9363 0ZM39.9478 0L40.3378 -0.448574L40.17 -0.594406H39.9478V0ZM0.129377 5.46444V6.05884H0.365076L0.536726 5.89732L0.129377 5.46444ZM0 5.46444V4.87003H-0.594406V5.46444H0ZM46.2329 5.46444L45.8429 5.91301L46.0107 6.05884H46.2329V5.46444ZM5.9363 0.594406H39.9478V-0.594406H5.9363V0.594406ZM0.536726 5.89732L6.34365 0.43288L5.52895 -0.43288L-0.277972 5.03156L0.536726 5.89732ZM0 6.05884H0.129377V4.87003H0V6.05884ZM0.594406 5.58618V5.46444H-0.594406V5.58618H0.594406ZM0.594406 66.6507V5.58618H-0.594406V66.6507H0.594406ZM5.34964 71.406C2.7234 71.406 0.594406 69.277 0.594406 66.6507H-0.594406C-0.594406 69.9335 2.06683 72.5948 5.34964 72.5948V71.406ZM90.8742 71.406H5.34964V72.5948H90.8742V71.406ZM95.6295 66.6507C95.6295 69.277 93.5005 71.406 90.8742 71.406V72.5948C94.157 72.5948 96.8183 69.9335 96.8183 66.6507H95.6295ZM95.6295 10.8141V66.6507H96.8183V10.8141H95.6295ZM90.8742 6.05884C93.5005 6.05884 95.6295 8.18784 95.6295 10.8141H96.8183C96.8183 7.53127 94.1571 4.87003 90.8742 4.87003V6.05884ZM46.2329 6.05884H90.8742V4.87003H46.2329V6.05884ZM39.5578 0.448574L45.8429 5.91301L46.6229 5.01586L40.3378 -0.448574L39.5578 0.448574Z" fill="black" mask="url(#path-1-inside-1_264_2674)"/>
  <mask id="path-3-inside-2_264_2674" fill="white">
    <path fill-rule="evenodd" clip-rule="evenodd" d="M56.2759 12.7842H90.2873L96.0937 17.2779H96.2236V17.3784V66.6494C96.2236 69.6039 93.8285 71.999 90.874 71.999H5.3494C2.39487 71.999 -0.000244141 69.6039 -0.000244141 66.6494V22.6275C-0.000244141 19.673 2.39487 17.2779 5.3494 17.2779H49.9913L56.2759 12.7842Z"/>
  </mask>
  <path fill-rule="evenodd" clip-rule="evenodd" d="M56.2759 12.7842H90.2873L96.0937 17.2779H96.2236V17.3784V66.6494C96.2236 69.6039 93.8285 71.999 90.874 71.999H5.3494C2.39487 71.999 -0.000244141 69.6039 -0.000244141 66.6494V22.6275C-0.000244141 19.673 2.39487 17.2779 5.3494 17.2779H49.9913L56.2759 12.7842Z" fill="#FFF382"/>
  <path d="M90.2873 12.7842V12.1898H90.4905L90.6511 12.3141L90.2873 12.7842ZM56.2759 12.7842L55.9301 12.3007L56.0852 12.1898H56.2759V12.7842ZM96.0937 17.2779V17.8723H95.8906L95.7299 17.748L96.0937 17.2779ZM96.2236 17.2779V16.6835H96.818V17.2779H96.2236ZM49.9913 17.2779L50.337 17.7614L50.1819 17.8723H49.9913V17.2779ZM90.2873 13.3786H56.2759V12.1898H90.2873V13.3786ZM95.7299 17.748L89.9235 13.2543L90.6511 12.3141L96.4575 16.8078L95.7299 17.748ZM96.2236 17.8723H96.0937V16.6835H96.2236V17.8723ZM95.6292 17.3784V17.2779H96.818V17.3784H95.6292ZM95.6292 66.6494V17.3784H96.818V66.6494H95.6292ZM90.874 71.4046C93.5002 71.4046 95.6292 69.2756 95.6292 66.6494H96.818C96.818 69.9322 94.1568 72.5934 90.874 72.5934V71.4046ZM5.3494 71.4046H90.874V72.5934H5.3494V71.4046ZM0.594162 66.6494C0.594162 69.2756 2.72315 71.4046 5.3494 71.4046V72.5934C2.0666 72.5934 -0.59465 69.9322 -0.59465 66.6494H0.594162ZM0.594162 22.6275V66.6494H-0.59465V22.6275H0.594162ZM5.3494 17.8723C2.72315 17.8723 0.594162 20.0013 0.594162 22.6275H-0.59465C-0.59465 19.3447 2.06658 16.6835 5.3494 16.6835V17.8723ZM49.9913 17.8723H5.3494V16.6835H49.9913V17.8723ZM56.6216 13.2677L50.337 17.7614L49.6456 16.7944L55.9301 12.3007L56.6216 13.2677Z" fill="black" mask="url(#path-3-inside-2_264_2674)"/>
</svg>