<svg xmlns="http://www.w3.org/2000/svg" width="110" height="72" viewBox="0 0 110 72" fill="none">
  <path d="M0.262484 0.262484H54.766H109.269V71.7375H0.262484V0.262484Z" fill="#FFF382" stroke="black" stroke-width="0.524967"/>
  <mask id="path-2-inside-1_264_2668" fill="white">
    <path fill-rule="evenodd" clip-rule="evenodd" d="M42.5628 38.3493C41.3355 36.8865 40.5977 35.0073 40.5977 32.9576C40.5977 28.2931 44.4189 24.5117 49.1326 24.5117C51.6816 24.5117 53.9697 25.6175 55.5336 27.3709C57.0975 25.6175 59.3855 24.5117 61.9346 24.5117C66.6483 24.5117 70.4695 28.2931 70.4695 32.9576C70.4695 35.0073 69.7316 36.8865 68.5044 38.3493H68.5301L55.5339 53.2644L42.5375 38.3493H42.5628Z"/>
  </mask>
  <path fill-rule="evenodd" clip-rule="evenodd" d="M42.5628 38.3493C41.3355 36.8865 40.5977 35.0073 40.5977 32.9576C40.5977 28.2931 44.4189 24.5117 49.1326 24.5117C51.6816 24.5117 53.9697 25.6175 55.5336 27.3709C57.0975 25.6175 59.3855 24.5117 61.9346 24.5117C66.6483 24.5117 70.4695 28.2931 70.4695 32.9576C70.4695 35.0073 69.7316 36.8865 68.5044 38.3493H68.5301L55.5339 53.2644L42.5375 38.3493H42.5628Z" fill="url(#paint0_linear_264_2668)"/>
  <path d="M42.5628 38.3493V38.8743H43.6885L42.9649 38.0119L42.5628 38.3493ZM55.5336 27.3709L55.1418 27.7203L55.5336 28.1595L55.9253 27.7203L55.5336 27.3709ZM68.5044 38.3493L68.1022 38.0119L67.3787 38.8743H68.5044V38.3493ZM68.5301 38.3493L68.9259 38.6942L69.6838 37.8243H68.5301V38.3493ZM55.5339 53.2644L55.1381 53.6092L55.5339 54.0635L55.9297 53.6092L55.5339 53.2644ZM42.5375 38.3493V37.8243H41.3837L42.1417 38.6942L42.5375 38.3493ZM42.9649 38.0119C41.8137 36.6397 41.1226 34.8789 41.1226 32.9576H40.0727C40.0727 35.1358 40.8574 37.1334 42.1606 38.6867L42.9649 38.0119ZM41.1226 32.9576C41.1226 28.5882 44.7036 25.0367 49.1326 25.0367V23.9868C44.1341 23.9868 40.0727 27.998 40.0727 32.9576H41.1226ZM49.1326 25.0367C51.5268 25.0367 53.674 26.0747 55.1418 27.7203L55.9253 27.0214C54.2654 25.1604 51.8365 23.9868 49.1326 23.9868V25.0367ZM55.9253 27.7203C57.3932 26.0747 59.5404 25.0367 61.9346 25.0367V23.9868C59.2307 23.9868 56.8018 25.1604 55.1418 27.0214L55.9253 27.7203ZM61.9346 25.0367C66.3636 25.0367 69.9445 28.5882 69.9445 32.9576H70.9945C70.9945 27.998 66.933 23.9868 61.9346 23.9868V25.0367ZM69.9445 32.9576C69.9445 34.8789 69.2535 36.6397 68.1022 38.0119L68.9066 38.6867C70.2098 37.1334 70.9945 35.1358 70.9945 32.9576H69.9445ZM68.5301 37.8243H68.5044V38.8743H68.5301V37.8243ZM55.9297 53.6092L68.9259 38.6942L68.1343 38.0044L55.1381 52.9195L55.9297 53.6092ZM42.1417 38.6942L55.1381 53.6092L55.9297 52.9195L42.9332 38.0044L42.1417 38.6942ZM42.5628 37.8243H42.5375V38.8743H42.5628V37.8243Z" fill="black" mask="url(#path-2-inside-1_264_2668)"/>
  <defs>
    <linearGradient id="paint0_linear_264_2668" x1="55.5336" y1="24.5117" x2="55.5336" y2="53.2643" gradientUnits="userSpaceOnUse">
      <stop stop-color="#FF8CAF"/>
      <stop offset="1" stop-color="white"/>
    </linearGradient>
  </defs>
</svg>