<svg xmlns="http://www.w3.org/2000/svg" width="88" height="88" viewBox="0 0 88 88" fill="none">
  <rect x="0.377778" y="0.377778" width="87.2444" height="87.2444" fill="white" stroke="black" stroke-width="0.755556"/>
  <rect x="12.1112" y="12.1112" width="62.8" height="62.8" fill="#FF8CAF" stroke="black" stroke-width="0.755556"/>
  <path fill-rule="evenodd" clip-rule="evenodd" d="M57.1778 27.5812V26.667L56.2799 26.8392L33.4651 31.2141L32.8519 31.3317V31.9562V51.2123C31.8584 50.372 30.5736 49.8653 29.1705 49.8653C26.0204 49.8653 23.4668 52.419 23.4668 55.569C23.4668 58.7191 26.0204 61.2727 29.1705 61.2727C32.3206 61.2727 34.8742 58.7191 34.8742 55.569C34.8742 54.7259 34.6913 53.9256 34.363 53.2055V32.5806L55.6667 28.4954V51.2133C54.673 50.3723 53.3877 49.8652 51.984 49.8652C48.8339 49.8652 46.2803 52.4189 46.2803 55.5689C46.2803 58.719 48.8339 61.2726 51.984 61.2726C55.134 61.2726 57.6877 58.719 57.6877 55.5689C57.6877 54.727 57.5053 53.9277 57.1778 53.2083L57.1778 27.5812Z" fill="black"/>
</svg>