<svg xmlns="http://www.w3.org/2000/svg" width="83" height="98" viewBox="0 0 83 98" fill="none">
  <rect x="0.417526" y="5.53081" width="75.8606" height="92.0519" fill="#20E0EE" stroke="black" stroke-width="0.835052"/>
  <rect x="6.38335" y="0.417526" width="75.8606" height="92.0519" fill="white" stroke="black" stroke-width="0.835052"/>
  <mask id="path-3-inside-1_264_2654" fill="white">
    <path fill-rule="evenodd" clip-rule="evenodd" d="M30.3068 46.0721C28.9418 44.4448 28.1211 42.3544 28.1211 40.0743C28.1211 34.8847 32.3724 30.6777 37.6167 30.6777C40.453 30.6777 42.9988 31.9083 44.7388 33.8593C46.4787 31.9083 49.0246 30.6777 51.8609 30.6777C57.1052 30.6777 61.3565 34.8847 61.3565 40.0743C61.3565 42.3544 60.5358 44.4448 59.1708 46.0721H59.1967L44.7376 62.666L30.2783 46.0721H30.3068Z"/>
  </mask>
  <path fill-rule="evenodd" clip-rule="evenodd" d="M30.3068 46.0721C28.9418 44.4448 28.1211 42.3544 28.1211 40.0743C28.1211 34.8847 32.3724 30.6777 37.6167 30.6777C40.453 30.6777 42.9988 31.9083 44.7388 33.8593C46.4787 31.9083 49.0246 30.6777 51.8609 30.6777C57.1052 30.6777 61.3565 34.8847 61.3565 40.0743C61.3565 42.3544 60.5358 44.4448 59.1708 46.0721H59.1967L44.7376 62.666L30.2783 46.0721H30.3068Z" fill="url(#paint0_linear_264_2654)"/>
  <path d="M30.3068 46.0721V46.9071H32.0971L30.9465 45.5354L30.3068 46.0721ZM44.7388 33.8593L44.1156 34.4151L44.7388 35.114L45.362 34.4151L44.7388 33.8593ZM59.1708 46.0721L58.5311 45.5354L57.3804 46.9071H59.1708V46.0721ZM59.1967 46.0721L59.8263 46.6207L61.0319 45.237H59.1967V46.0721ZM44.7376 62.666L44.1081 63.2146L44.7376 63.9371L45.3672 63.2146L44.7376 62.666ZM30.2783 46.0721V45.237H28.4431L29.6487 46.6207L30.2783 46.0721ZM30.9465 45.5354C29.7024 44.0522 28.9561 42.15 28.9561 40.0743H27.286C27.286 42.5588 28.1811 44.8374 29.667 46.6088L30.9465 45.5354ZM28.9561 40.0743C28.9561 35.3541 32.8253 31.5128 37.6167 31.5128V29.8427C31.9195 29.8427 27.286 34.4153 27.286 40.0743H28.9561ZM37.6167 31.5128C40.2066 31.5128 42.5284 32.6354 44.1156 34.4151L45.362 33.3035C43.4693 31.1812 40.6994 29.8427 37.6167 29.8427V31.5128ZM45.362 34.4151C46.9491 32.6354 49.271 31.5128 51.8609 31.5128V29.8427C48.7782 29.8427 46.0083 31.1812 44.1156 33.3035L45.362 34.4151ZM51.8609 31.5128C56.6523 31.5128 60.5214 35.3541 60.5214 40.0743H62.1915C62.1915 34.4153 57.5581 29.8427 51.8609 29.8427V31.5128ZM60.5214 40.0743C60.5214 42.15 59.7752 44.0522 58.5311 45.5354L59.8106 46.6088C61.2964 44.8374 62.1915 42.5588 62.1915 40.0743H60.5214ZM59.1967 45.237H59.1708V46.9071H59.1967V45.237ZM45.3672 63.2146L59.8263 46.6207L58.5671 45.5235L44.1081 62.1174L45.3672 63.2146ZM29.6487 46.6207L44.1081 63.2146L45.3672 62.1174L30.9079 45.5235L29.6487 46.6207ZM30.3068 45.237H30.2783V46.9071H30.3068V45.237Z" fill="black" mask="url(#path-3-inside-1_264_2654)"/>
  <defs>
    <linearGradient id="paint0_linear_264_2654" x1="44.7388" y1="30.6777" x2="44.7388" y2="62.6662" gradientUnits="userSpaceOnUse">
      <stop stop-color="#FF8CAF"/>
      <stop offset="1" stop-color="white"/>
    </linearGradient>
  </defs>
</svg>