<svg width="300" height="187" viewBox="0 0 300 187" fill="none" xmlns="http://www.w3.org/2000/svg">
<rect x="68.6" y="73.6" width="156.8" height="66.8" fill="white" stroke="black" stroke-width="1.2"/>
<path d="M102 43.75H104.25V41.5H115.5V43.75H117.75V64H113.25V52.75H106.5V64H102V43.75ZM106.5 43.75V50.5H113.25V43.75H106.5ZM120 41.5H133.5V43.75H135.75V50.5H133.5V52.75H135.75V61.75H133.5V64H120V41.5ZM124.5 43.75V50.5H131.25V43.75H124.5ZM124.5 52.75V61.75H131.25V52.75H124.5ZM138 43.75H140.25V41.5H151.5V43.75H153.75V61.75H151.5V64H140.25V61.75H138V43.75ZM142.5 43.75V61.75H149.25V43.75H142.5ZM156 41.5H160.5V61.75H167.25V41.5H171.75V61.75H169.5V64H158.25V61.75H156V41.5ZM176.25 41.5H189.75V43.75H185.25V64H180.75V43.75H176.25V41.5Z" fill="black"/>
<path d="M129 155.5H142.5V157.75H144.75V178H140.25V157.75H138V178H135.75V157.75H133.5V178H129V155.5ZM147 157.75H149.25V155.5H162.75V157.75H151.5V164.5H160.5V166.75H151.5V175.75H162.75V178H149.25V175.75H147V157.75Z" fill="black"/>
<path d="M82.7625 100.288C82.7625 98.968 82.9185 97.756 83.2305 96.652C83.5665 95.524 84.0945 94.552 84.8145 93.736C85.5585 92.92 86.5065 92.284 87.6585 91.828C88.8345 91.348 90.2625 91.108 91.9425 91.108C93.6225 91.108 95.0385 91.348 96.1905 91.828C97.3665 92.284 98.3145 92.92 99.0345 93.736C99.7785 94.552 100.307 95.524 100.619 96.652C100.955 97.756 101.123 98.968 101.123 100.288V104.968H108.503V91.468H110.663V121.924H108.503V106.84H101.123V113.104C101.123 114.424 100.955 115.648 100.619 116.776C100.307 117.88 99.7785 118.84 99.0345 119.656C98.3145 120.472 97.3665 121.108 96.1905 121.564C95.0385 122.044 93.6225 122.284 91.9425 122.284C90.2625 122.284 88.8345 122.044 87.6585 121.564C86.5065 121.108 85.5585 120.472 84.8145 119.656C84.0945 118.84 83.5665 117.88 83.2305 116.776C82.9185 115.648 82.7625 114.424 82.7625 113.104V100.288ZM91.9425 120.412C93.2625 120.412 94.3665 120.232 95.2545 119.872C96.1665 119.512 96.8985 119.008 97.4505 118.36C98.0025 117.712 98.3865 116.944 98.6025 116.056C98.8425 115.168 98.9625 114.184 98.9625 113.104V100.288C98.9625 99.208 98.8425 98.224 98.6025 97.336C98.3865 96.448 98.0025 95.68 97.4505 95.032C96.8985 94.384 96.1665 93.88 95.2545 93.52C94.3665 93.16 93.2625 92.98 91.9425 92.98C90.5985 92.98 89.4825 93.16 88.5945 93.52C87.7065 93.88 86.9865 94.384 86.4345 95.032C85.8825 95.68 85.4865 96.448 85.2465 97.336C85.0305 98.224 84.9225 99.208 84.9225 100.288V113.104C84.9225 114.184 85.0305 115.168 85.2465 116.056C85.4865 116.944 85.8825 117.712 86.4345 118.36C86.9865 119.008 87.7065 119.512 88.5945 119.872C89.4825 120.232 90.5985 120.412 91.9425 120.412ZM91.9425 110.188C91.8705 108.772 91.5585 107.8 91.0065 107.272C90.4545 106.744 89.5905 106.456 88.4145 106.408C89.5905 106.36 90.4545 106.072 91.0065 105.544C91.5585 105.016 91.8705 104.044 91.9425 102.628C92.0145 104.044 92.3145 105.016 92.8425 105.544C93.3945 106.072 94.2705 106.36 95.4705 106.408C94.2705 106.456 93.3945 106.744 92.8425 107.272C92.3145 107.8 92.0145 108.772 91.9425 110.188ZM134.411 121.924H116.411V91.468H118.571V120.052H132.251V91.468H134.411V121.924ZM140.531 91.468H142.691V104.248H147.371V106.12H142.691V121.924H140.531V91.468ZM125.411 108.748C125.339 107.332 125.027 106.36 124.475 105.832C123.923 105.304 123.059 105.016 121.883 104.968C123.059 104.92 123.923 104.632 124.475 104.104C125.027 103.576 125.339 102.604 125.411 101.188C125.483 102.604 125.783 103.576 126.311 104.104C126.863 104.632 127.739 104.92 128.939 104.968C127.739 105.016 126.863 105.304 126.311 105.832C125.783 106.36 125.483 107.332 125.411 108.748ZM149.34 96.616C149.34 94.96 149.832 93.688 150.816 92.8C151.824 91.912 153.192 91.468 154.92 91.468H172.56C174.288 91.468 175.644 91.912 176.628 92.8C177.636 93.688 178.14 94.96 178.14 96.616C178.14 98.272 177.636 99.544 176.628 100.432C175.644 101.32 174.288 101.764 172.56 101.764H154.92C153.192 101.764 151.824 101.32 150.816 100.432C149.832 99.544 149.34 98.272 149.34 96.616ZM151.5 96.616C151.5 97.576 151.752 98.368 152.256 98.992C152.784 99.592 153.672 99.892 154.92 99.892H172.56C173.808 99.892 174.684 99.592 175.188 98.992C175.716 98.368 175.98 97.576 175.98 96.616C175.98 95.656 175.716 94.876 175.188 94.276C174.684 93.652 173.808 93.34 172.56 93.34H154.92C153.672 93.34 152.784 93.652 152.256 94.276C151.752 94.876 151.5 95.656 151.5 96.616ZM177.96 105.112V106.984H164.82V111.412H164.928L178.068 121.924H175.26L163.74 112.78L152.22 121.924H149.412L162.552 111.412H162.66V106.984H149.52V105.112H177.96ZM183.349 121.924V91.468H201.709V121.924H183.349ZM208.909 91.468H211.069V121.924H208.909V91.468ZM185.509 120.052H199.549V93.34H185.509V120.052Z" fill="black"/>
<mask id="path-5-inside-1_0_1" fill="white">
<path fill-rule="evenodd" clip-rule="evenodd" d="M234.372 118.894L219.131 112.762L224.11 128.417L227.946 124.177L231.655 128.174L233.566 126.4L229.857 122.403L234.372 118.894Z"/>
</mask>
<path fill-rule="evenodd" clip-rule="evenodd" d="M234.372 118.894L219.131 112.762L224.11 128.417L227.946 124.177L231.655 128.174L233.566 126.4L229.857 122.403L234.372 118.894Z" fill="white"/>
<path d="M219.131 112.762L219.318 112.298L218.333 111.902L218.654 112.913L219.131 112.762ZM234.372 118.894L234.679 119.289L235.365 118.755L234.558 118.43L234.372 118.894ZM224.11 128.417L223.633 128.569L223.897 129.398L224.48 128.753L224.11 128.417ZM227.946 124.177L228.312 123.837L227.941 123.437L227.575 123.841L227.946 124.177ZM231.655 128.174L231.289 128.514L231.629 128.88L231.995 128.54L231.655 128.174ZM233.566 126.4L233.906 126.767L234.273 126.426L233.933 126.06L233.566 126.4ZM229.857 122.403L229.55 122.009L229.119 122.343L229.491 122.743L229.857 122.403ZM218.944 113.226L234.185 119.358L234.558 118.43L219.318 112.298L218.944 113.226ZM224.586 128.266L219.607 112.61L218.654 112.913L223.633 128.569L224.586 128.266ZM227.575 123.841L223.739 128.082L224.48 128.753L228.317 124.512L227.575 123.841ZM232.022 127.834L228.312 123.837L227.579 124.517L231.289 128.514L232.022 127.834ZM233.226 126.034L231.315 127.807L231.995 128.54L233.906 126.767L233.226 126.034ZM229.491 122.743L233.2 126.74L233.933 126.06L230.224 122.063L229.491 122.743ZM234.065 118.499L229.55 122.009L230.164 122.798L234.679 119.289L234.065 118.499Z" fill="black" mask="url(#path-5-inside-1_0_1)"/>
<path d="M68 164L118 164" stroke="black"/>
<path d="M175 164L225 164" stroke="black"/>
<mask id="path-9-outside-2_0_1" maskUnits="userSpaceOnUse" x="-1" y="64" width="35" height="34" fill="black">
<rect fill="white" x="-1" y="64" width="35" height="34"/>
<path d="M14.778 65.896H18.234V69.352H21.69V76.264H32.058V79.72H28.602V83.176H25.146V90.088H28.602V97H21.69V93.544H18.234V90.088H14.778V93.544H11.322V97H4.41V90.088H7.866V83.176H4.41V79.72H0.954V76.264H11.322V69.352H14.778V65.896Z"/>
</mask>
<path d="M14.778 65.896H18.234V69.352H21.69V76.264H32.058V79.72H28.602V83.176H25.146V90.088H28.602V97H21.69V93.544H18.234V90.088H14.778V93.544H11.322V97H4.41V90.088H7.866V83.176H4.41V79.72H0.954V76.264H11.322V69.352H14.778V65.896Z" fill="white"/>
<path d="M14.778 65.896V64.896H13.778V65.896H14.778ZM18.234 65.896H19.234V64.896H18.234V65.896ZM18.234 69.352H17.234V70.352H18.234V69.352ZM21.69 69.352H22.69V68.352H21.69V69.352ZM21.69 76.264H20.69V77.264H21.69V76.264ZM32.058 76.264H33.058V75.264H32.058V76.264ZM32.058 79.72V80.72H33.058V79.72H32.058ZM28.602 79.72V78.72H27.602V79.72H28.602ZM28.602 83.176V84.176H29.602V83.176H28.602ZM25.146 83.176V82.176H24.146V83.176H25.146ZM25.146 90.088H24.146V91.088H25.146V90.088ZM28.602 90.088H29.602V89.088H28.602V90.088ZM28.602 97V98H29.602V97H28.602ZM21.69 97H20.69V98H21.69V97ZM21.69 93.544H22.69V92.544H21.69V93.544ZM18.234 93.544H17.234V94.544H18.234V93.544ZM18.234 90.088H19.234V89.088H18.234V90.088ZM14.778 90.088V89.088H13.778V90.088H14.778ZM14.778 93.544V94.544H15.778V93.544H14.778ZM11.322 93.544V92.544H10.322V93.544H11.322ZM11.322 97V98H12.322V97H11.322ZM4.41 97H3.41V98H4.41V97ZM4.41 90.088V89.088H3.41V90.088H4.41ZM7.866 90.088V91.088H8.866V90.088H7.866ZM7.866 83.176H8.866V82.176H7.866V83.176ZM4.41 83.176H3.41V84.176H4.41V83.176ZM4.41 79.72H5.41V78.72H4.41V79.72ZM0.954 79.72H-0.0459998V80.72H0.954V79.72ZM0.954 76.264V75.264H-0.0459998V76.264H0.954ZM11.322 76.264V77.264H12.322V76.264H11.322ZM11.322 69.352V68.352H10.322V69.352H11.322ZM14.778 69.352V70.352H15.778V69.352H14.778ZM14.778 66.896H18.234V64.896H14.778V66.896ZM17.234 65.896V69.352H19.234V65.896H17.234ZM18.234 70.352H21.69V68.352H18.234V70.352ZM20.69 69.352V76.264H22.69V69.352H20.69ZM21.69 77.264H32.058V75.264H21.69V77.264ZM31.058 76.264V79.72H33.058V76.264H31.058ZM32.058 78.72H28.602V80.72H32.058V78.72ZM27.602 79.72V83.176H29.602V79.72H27.602ZM28.602 82.176H25.146V84.176H28.602V82.176ZM24.146 83.176V90.088H26.146V83.176H24.146ZM25.146 91.088H28.602V89.088H25.146V91.088ZM27.602 90.088V97H29.602V90.088H27.602ZM28.602 96H21.69V98H28.602V96ZM22.69 97V93.544H20.69V97H22.69ZM21.69 92.544H18.234V94.544H21.69V92.544ZM19.234 93.544V90.088H17.234V93.544H19.234ZM18.234 89.088H14.778V91.088H18.234V89.088ZM13.778 90.088V93.544H15.778V90.088H13.778ZM14.778 92.544H11.322V94.544H14.778V92.544ZM10.322 93.544V97H12.322V93.544H10.322ZM11.322 96H4.41V98H11.322V96ZM5.41 97V90.088H3.41V97H5.41ZM4.41 91.088H7.866V89.088H4.41V91.088ZM8.866 90.088V83.176H6.866V90.088H8.866ZM7.866 82.176H4.41V84.176H7.866V82.176ZM5.41 83.176V79.72H3.41V83.176H5.41ZM4.41 78.72H0.954V80.72H4.41V78.72ZM1.954 79.72V76.264H-0.0459998V79.72H1.954ZM0.954 77.264H11.322V75.264H0.954V77.264ZM12.322 76.264V69.352H10.322V76.264H12.322ZM11.322 70.352H14.778V68.352H11.322V70.352ZM15.778 69.352V65.896H13.778V69.352H15.778Z" fill="black" mask="url(#path-9-outside-2_0_1)"/>
<mask id="path-11-outside-3_0_1" maskUnits="userSpaceOnUse" x="22" y="-1" width="66" height="65" fill="black">
<rect fill="white" x="22" y="-1" width="66" height="65"/>
<path d="M51.556 0.792H58.468V7.704H65.38V21.528H86.116V28.44H79.204V35.352H72.292V49.176H79.204V63H65.38V56.088H58.468V49.176H51.556V56.088H44.644V63H30.82V49.176H37.732V35.352H30.82V28.44H23.908V21.528H44.644V7.704H51.556V0.792Z"/>
</mask>
<path d="M51.556 0.792V-0.208H50.556V0.792H51.556ZM58.468 0.792H59.468V-0.208H58.468V0.792ZM58.468 7.704H57.468V8.704H58.468V7.704ZM65.38 7.704H66.38V6.704H65.38V7.704ZM65.38 21.528H64.38V22.528H65.38V21.528ZM86.116 21.528H87.116V20.528H86.116V21.528ZM86.116 28.44V29.44H87.116V28.44H86.116ZM79.204 28.44V27.44H78.204V28.44H79.204ZM79.204 35.352V36.352H80.204V35.352H79.204ZM72.292 35.352V34.352H71.292V35.352H72.292ZM72.292 49.176H71.292V50.176H72.292V49.176ZM79.204 49.176H80.204V48.176H79.204V49.176ZM79.204 63V64H80.204V63H79.204ZM65.38 63H64.38V64H65.38V63ZM65.38 56.088H66.38V55.088H65.38V56.088ZM58.468 56.088H57.468V57.088H58.468V56.088ZM58.468 49.176H59.468V48.176H58.468V49.176ZM51.556 49.176V48.176H50.556V49.176H51.556ZM51.556 56.088V57.088H52.556V56.088H51.556ZM44.644 56.088V55.088H43.644V56.088H44.644ZM44.644 63V64H45.644V63H44.644ZM30.82 63H29.82V64H30.82V63ZM30.82 49.176V48.176H29.82V49.176H30.82ZM37.732 49.176V50.176H38.732V49.176H37.732ZM37.732 35.352H38.732V34.352H37.732V35.352ZM30.82 35.352H29.82V36.352H30.82V35.352ZM30.82 28.44H31.82V27.44H30.82V28.44ZM23.908 28.44H22.908V29.44H23.908V28.44ZM23.908 21.528V20.528H22.908V21.528H23.908ZM44.644 21.528V22.528H45.644V21.528H44.644ZM44.644 7.704V6.704H43.644V7.704H44.644ZM51.556 7.704V8.704H52.556V7.704H51.556ZM51.556 1.792H58.468V-0.208H51.556V1.792ZM57.468 0.792V7.704H59.468V0.792H57.468ZM58.468 8.704H65.38V6.704H58.468V8.704ZM64.38 7.704V21.528H66.38V7.704H64.38ZM65.38 22.528H86.116V20.528H65.38V22.528ZM85.116 21.528V28.44H87.116V21.528H85.116ZM86.116 27.44H79.204V29.44H86.116V27.44ZM78.204 28.44V35.352H80.204V28.44H78.204ZM79.204 34.352H72.292V36.352H79.204V34.352ZM71.292 35.352V49.176H73.292V35.352H71.292ZM72.292 50.176H79.204V48.176H72.292V50.176ZM78.204 49.176V63H80.204V49.176H78.204ZM79.204 62H65.38V64H79.204V62ZM66.38 63V56.088H64.38V63H66.38ZM65.38 55.088H58.468V57.088H65.38V55.088ZM59.468 56.088V49.176H57.468V56.088H59.468ZM58.468 48.176H51.556V50.176H58.468V48.176ZM50.556 49.176V56.088H52.556V49.176H50.556ZM51.556 55.088H44.644V57.088H51.556V55.088ZM43.644 56.088V63H45.644V56.088H43.644ZM44.644 62H30.82V64H44.644V62ZM31.82 63V49.176H29.82V63H31.82ZM30.82 50.176H37.732V48.176H30.82V50.176ZM38.732 49.176V35.352H36.732V49.176H38.732ZM37.732 34.352H30.82V36.352H37.732V34.352ZM31.82 35.352V28.44H29.82V35.352H31.82ZM30.82 27.44H23.908V29.44H30.82V27.44ZM24.908 28.44V21.528H22.908V28.44H24.908ZM23.908 22.528H44.644V20.528H23.908V22.528ZM45.644 21.528V7.704H43.644V21.528H45.644ZM44.644 8.704H51.556V6.704H44.644V8.704ZM52.556 7.704V0.792H50.556V7.704H52.556Z" fill="black" mask="url(#path-11-outside-3_0_1)"/>
<path d="M264.556 120.792H271.468V127.704H278.38V141.528H299.116V148.44H292.204V155.352H285.292V169.176H292.204V183H278.38V176.088H271.468V169.176H264.556V176.088H257.644V183H243.82V169.176H250.732V155.352H243.82V148.44H236.908V141.528H257.644V127.704H264.556V120.792Z" fill="black"/>
<path d="M238.636 64.5116C234.817 57.9293 221.777 54.9993 221.777 54.9993C221.777 54.9993 235.05 56.5585 240.836 51.6149C246.622 46.6714 249.886 30.9808 249.886 30.9808C249.886 30.9808 247.764 46.8662 251.583 53.4485C255.402 60.0308 268.442 62.9608 268.442 62.9608C268.442 62.9608 255.169 61.4016 249.383 66.3451C243.597 71.2887 240.333 86.9793 240.333 86.9793C240.333 86.9793 242.455 71.0938 238.636 64.5116Z" stroke="black"/>
<path d="M48.1303 136.76C44.5699 134.137 36.9423 135.598 36.9423 135.598C36.9423 135.598 44.3769 133.353 46.3145 129.378C48.252 125.403 46.356 116.285 46.356 116.285C46.356 116.285 48.9059 125.242 52.4663 127.865C56.0268 130.487 63.6544 129.027 63.6544 129.027C63.6544 129.027 56.2198 131.272 54.2822 135.247C52.3446 139.222 54.2406 148.34 54.2406 148.34C54.2406 148.34 51.6907 139.383 48.1303 136.76Z" stroke="black"/>
</svg>
