<svg width="376" height="690" viewBox="0 0 376 690" fill="none" xmlns="http://www.w3.org/2000/svg">
<rect x="18.5" y="0.5" width="172" height="217" fill="white" stroke="black"/>
<rect x="202.5" y="33.5" width="173" height="217" fill="white" stroke="black"/>
<rect x="18.5" y="480.5" width="155" height="185" fill="white" stroke="black"/>
<rect x="40.5" y="233.5" width="183" height="230" fill="white" stroke="black"/>
<rect x="199.538" y="480.538" width="175.538" height="208.923" fill="white" stroke="black" stroke-width="1.07692"/>
<rect x="-10.5" y="113.5" width="38" height="10" rx="5" fill="url(#paint0_linear_0_1)" stroke="black"/>
<rect x="-10.5" y="190.5" width="38" height="10" rx="5" fill="url(#paint1_linear_0_1)" stroke="black"/>
<rect x="-10.5" y="267.5" width="38" height="10" rx="5" fill="url(#paint2_linear_0_1)" stroke="black"/>
<rect x="-10.5" y="344.5" width="38" height="10" rx="5" fill="url(#paint3_linear_0_1)" stroke="black"/>
<rect x="-10.5" y="421.5" width="38" height="10" rx="5" fill="url(#paint4_linear_0_1)" stroke="black"/>
<rect x="-10.5" y="498.5" width="38" height="10" rx="5" fill="url(#paint5_linear_0_1)" stroke="black"/>
<rect x="236.5" y="297.5" width="139" height="154" fill="white" stroke="black"/>
<defs>
<linearGradient id="paint0_linear_0_1" x1="-11" y1="118.5" x2="28" y2="118.5" gradientUnits="userSpaceOnUse">
<stop stop-color="#E9E9E9"/>
<stop offset="1" stop-color="#838383"/>
</linearGradient>
<linearGradient id="paint1_linear_0_1" x1="-11" y1="195.5" x2="28" y2="195.5" gradientUnits="userSpaceOnUse">
<stop stop-color="#E9E9E9"/>
<stop offset="1" stop-color="#838383"/>
</linearGradient>
<linearGradient id="paint2_linear_0_1" x1="-11" y1="272.5" x2="28" y2="272.5" gradientUnits="userSpaceOnUse">
<stop stop-color="#E9E9E9"/>
<stop offset="1" stop-color="#838383"/>
</linearGradient>
<linearGradient id="paint3_linear_0_1" x1="-11" y1="349.5" x2="28" y2="349.5" gradientUnits="userSpaceOnUse">
<stop stop-color="#E9E9E9"/>
<stop offset="1" stop-color="#838383"/>
</linearGradient>
<linearGradient id="paint4_linear_0_1" x1="-11" y1="426.5" x2="28" y2="426.5" gradientUnits="userSpaceOnUse">
<stop stop-color="#E9E9E9"/>
<stop offset="1" stop-color="#838383"/>
</linearGradient>
<linearGradient id="paint5_linear_0_1" x1="-11" y1="503.5" x2="28" y2="503.5" gradientUnits="userSpaceOnUse">
<stop stop-color="#E9E9E9"/>
<stop offset="1" stop-color="#838383"/>
</linearGradient>
</defs>
</svg>
