<svg width="244" height="117" viewBox="0 0 244 117" fill="none" xmlns="http://www.w3.org/2000/svg">
<rect x="30.6428" y="32.5569" width="180.714" height="78.8862" stroke="black" stroke-width="1.11378"/>
<rect x="117.575" y="28.5569" width="7.98806" height="7.79645" fill="white" stroke="black" stroke-width="1.11378"/>
<rect x="26.5569" y="28.5569" width="7.98806" height="7.79645" fill="white" stroke="black" stroke-width="1.11378"/>
<rect x="207.455" y="28.5569" width="7.98806" height="7.79645" fill="white" stroke="black" stroke-width="1.11378"/>
<rect x="26.5569" y="68.5569" width="7.98806" height="7.79645" fill="white" stroke="black" stroke-width="1.11378"/>
<rect x="207.455" y="68.5569" width="7.98806" height="7.79645" fill="white" stroke="black" stroke-width="1.11378"/>
<rect x="117.575" y="108.592" width="7.98806" height="7.79645" fill="white" stroke="black" stroke-width="1.11378"/>
<rect x="26.5569" y="108.592" width="7.98806" height="7.79645" fill="white" stroke="black" stroke-width="1.11378"/>
<rect x="207.455" y="108.592" width="7.98806" height="7.79645" fill="white" stroke="black" stroke-width="1.11378"/>
<mask id="path-10-inside-1_0_1" fill="white">
<path fill-rule="evenodd" clip-rule="evenodd" d="M171.372 42.894L156.131 36.7618L161.11 52.4173L164.946 48.1769L168.655 52.1737L170.566 50.4001L166.857 46.4033L171.372 42.894Z"/>
</mask>
<path fill-rule="evenodd" clip-rule="evenodd" d="M171.372 42.894L156.131 36.7618L161.11 52.4173L164.946 48.1769L168.655 52.1737L170.566 50.4001L166.857 46.4033L171.372 42.894Z" fill="white"/>
<path d="M156.131 36.7618L156.318 36.2979L155.333 35.9017L155.654 36.9133L156.131 36.7618ZM171.372 42.894L171.679 43.2888L172.365 42.7549L171.558 42.4302L171.372 42.894ZM161.11 52.4173L160.633 52.5688L160.897 53.3979L161.48 52.7527L161.11 52.4173ZM164.946 48.1769L165.312 47.8368L164.941 47.4368L164.575 47.8414L164.946 48.1769ZM168.655 52.1737L168.289 52.5138L168.629 52.8803L168.995 52.5402L168.655 52.1737ZM170.566 50.4001L170.906 50.7666L171.273 50.4265L170.933 50.06L170.566 50.4001ZM166.857 46.4033L166.55 46.0085L166.119 46.3434L166.491 46.7434L166.857 46.4033ZM155.944 37.2257L171.185 43.3579L171.558 42.4302L156.318 36.2979L155.944 37.2257ZM161.586 52.2658L156.607 36.6103L155.654 36.9133L160.633 52.5688L161.586 52.2658ZM164.575 47.8414L160.739 52.0819L161.48 52.7527L165.317 48.5123L164.575 47.8414ZM169.022 51.8336L165.312 47.8368L164.579 48.517L168.289 52.5138L169.022 51.8336ZM170.226 50.0336L168.315 51.8072L168.995 52.5402L170.906 50.7666L170.226 50.0336ZM166.491 46.7434L170.2 50.7402L170.933 50.06L167.224 46.0632L166.491 46.7434ZM171.065 42.4993L166.55 46.0085L167.164 46.798L171.679 43.2888L171.065 42.4993Z" fill="black" mask="url(#path-10-inside-1_0_1)"/>
<mask id="path-12-outside-2_0_1" maskUnits="userSpaceOnUse" x="218" y="80" width="27" height="26" fill="black">
<rect fill="white" x="218" y="80" width="27" height="26"/>
<path d="M230.334 81.672H232.926V84.264H235.518V89.448H243.294V92.04H240.702V94.632H238.11V99.816H240.702V105H235.518V102.408H232.926V99.816H230.334V102.408H227.742V105H222.558V99.816H225.15V94.632H222.558V92.04H219.966V89.448H227.742V84.264H230.334V81.672Z"/>
</mask>
<path d="M230.334 81.672H232.926V84.264H235.518V89.448H243.294V92.04H240.702V94.632H238.11V99.816H240.702V105H235.518V102.408H232.926V99.816H230.334V102.408H227.742V105H222.558V99.816H225.15V94.632H222.558V92.04H219.966V89.448H227.742V84.264H230.334V81.672Z" fill="white"/>
<path d="M230.334 81.672V80.672H229.334V81.672H230.334ZM232.926 81.672H233.926V80.672H232.926V81.672ZM232.926 84.264H231.926V85.264H232.926V84.264ZM235.518 84.264H236.518V83.264H235.518V84.264ZM235.518 89.448H234.518V90.448H235.518V89.448ZM243.294 89.448H244.294V88.448H243.294V89.448ZM243.294 92.04V93.04H244.294V92.04H243.294ZM240.702 92.04V91.04H239.702V92.04H240.702ZM240.702 94.632V95.632H241.702V94.632H240.702ZM238.11 94.632V93.632H237.11V94.632H238.11ZM238.11 99.816H237.11V100.816H238.11V99.816ZM240.702 99.816H241.702V98.816H240.702V99.816ZM240.702 105V106H241.702V105H240.702ZM235.518 105H234.518V106H235.518V105ZM235.518 102.408H236.518V101.408H235.518V102.408ZM232.926 102.408H231.926V103.408H232.926V102.408ZM232.926 99.816H233.926V98.816H232.926V99.816ZM230.334 99.816V98.816H229.334V99.816H230.334ZM230.334 102.408V103.408H231.334V102.408H230.334ZM227.742 102.408V101.408H226.742V102.408H227.742ZM227.742 105V106H228.742V105H227.742ZM222.558 105H221.558V106H222.558V105ZM222.558 99.816V98.816H221.558V99.816H222.558ZM225.15 99.816V100.816H226.15V99.816H225.15ZM225.15 94.632H226.15V93.632H225.15V94.632ZM222.558 94.632H221.558V95.632H222.558V94.632ZM222.558 92.04H223.558V91.04H222.558V92.04ZM219.966 92.04H218.966V93.04H219.966V92.04ZM219.966 89.448V88.448H218.966V89.448H219.966ZM227.742 89.448V90.448H228.742V89.448H227.742ZM227.742 84.264V83.264H226.742V84.264H227.742ZM230.334 84.264V85.264H231.334V84.264H230.334ZM230.334 82.672H232.926V80.672H230.334V82.672ZM231.926 81.672V84.264H233.926V81.672H231.926ZM232.926 85.264H235.518V83.264H232.926V85.264ZM234.518 84.264V89.448H236.518V84.264H234.518ZM235.518 90.448H243.294V88.448H235.518V90.448ZM242.294 89.448V92.04H244.294V89.448H242.294ZM243.294 91.04H240.702V93.04H243.294V91.04ZM239.702 92.04V94.632H241.702V92.04H239.702ZM240.702 93.632H238.11V95.632H240.702V93.632ZM237.11 94.632V99.816H239.11V94.632H237.11ZM238.11 100.816H240.702V98.816H238.11V100.816ZM239.702 99.816V105H241.702V99.816H239.702ZM240.702 104H235.518V106H240.702V104ZM236.518 105V102.408H234.518V105H236.518ZM235.518 101.408H232.926V103.408H235.518V101.408ZM233.926 102.408V99.816H231.926V102.408H233.926ZM232.926 98.816H230.334V100.816H232.926V98.816ZM229.334 99.816V102.408H231.334V99.816H229.334ZM230.334 101.408H227.742V103.408H230.334V101.408ZM226.742 102.408V105H228.742V102.408H226.742ZM227.742 104H222.558V106H227.742V104ZM223.558 105V99.816H221.558V105H223.558ZM222.558 100.816H225.15V98.816H222.558V100.816ZM226.15 99.816V94.632H224.15V99.816H226.15ZM225.15 93.632H222.558V95.632H225.15V93.632ZM223.558 94.632V92.04H221.558V94.632H223.558ZM222.558 91.04H219.966V93.04H222.558V91.04ZM220.966 92.04V89.448H218.966V92.04H220.966ZM219.966 90.448H227.742V88.448H219.966V90.448ZM228.742 89.448V84.264H226.742V89.448H228.742ZM227.742 85.264H230.334V83.264H227.742V85.264ZM231.334 84.264V81.672H229.334V84.264H231.334Z" fill="black" mask="url(#path-12-outside-2_0_1)"/>
<mask id="path-14-outside-3_0_1" maskUnits="userSpaceOnUse" x="52" y="-1" width="27" height="26" fill="black">
<rect fill="white" x="52" y="-1" width="27" height="26"/>
<path d="M64.3335 0.672H66.9255V3.264H69.5175V8.448H77.2935V11.04H74.7015V13.632H72.1095V18.816H74.7015V24H69.5175V21.408H66.9255V18.816H64.3335V21.408H61.7415V24H56.5575V18.816H59.1495V13.632H56.5575V11.04H53.9655V8.448H61.7415V3.264H64.3335V0.672Z"/>
</mask>
<path d="M64.3335 0.672V-0.328H63.3335V0.672H64.3335ZM66.9255 0.672H67.9255V-0.328H66.9255V0.672ZM66.9255 3.264H65.9255V4.264H66.9255V3.264ZM69.5175 3.264H70.5175V2.264H69.5175V3.264ZM69.5175 8.448H68.5175V9.448H69.5175V8.448ZM77.2935 8.448H78.2935V7.448H77.2935V8.448ZM77.2935 11.04V12.04H78.2935V11.04H77.2935ZM74.7015 11.04V10.04H73.7015V11.04H74.7015ZM74.7015 13.632V14.632H75.7015V13.632H74.7015ZM72.1095 13.632V12.632H71.1095V13.632H72.1095ZM72.1095 18.816H71.1095V19.816H72.1095V18.816ZM74.7015 18.816H75.7015V17.816H74.7015V18.816ZM74.7015 24V25H75.7015V24H74.7015ZM69.5175 24H68.5175V25H69.5175V24ZM69.5175 21.408H70.5175V20.408H69.5175V21.408ZM66.9255 21.408H65.9255V22.408H66.9255V21.408ZM66.9255 18.816H67.9255V17.816H66.9255V18.816ZM64.3335 18.816V17.816H63.3335V18.816H64.3335ZM64.3335 21.408V22.408H65.3335V21.408H64.3335ZM61.7415 21.408V20.408H60.7415V21.408H61.7415ZM61.7415 24V25H62.7415V24H61.7415ZM56.5575 24H55.5575V25H56.5575V24ZM56.5575 18.816V17.816H55.5575V18.816H56.5575ZM59.1495 18.816V19.816H60.1495V18.816H59.1495ZM59.1495 13.632H60.1495V12.632H59.1495V13.632ZM56.5575 13.632H55.5575V14.632H56.5575V13.632ZM56.5575 11.04H57.5575V10.04H56.5575V11.04ZM53.9655 11.04H52.9655V12.04H53.9655V11.04ZM53.9655 8.448V7.448H52.9655V8.448H53.9655ZM61.7415 8.448V9.448H62.7415V8.448H61.7415ZM61.7415 3.264V2.264H60.7415V3.264H61.7415ZM64.3335 3.264V4.264H65.3335V3.264H64.3335ZM64.3335 1.672H66.9255V-0.328H64.3335V1.672ZM65.9255 0.672V3.264H67.9255V0.672H65.9255ZM66.9255 4.264H69.5175V2.264H66.9255V4.264ZM68.5175 3.264V8.448H70.5175V3.264H68.5175ZM69.5175 9.448H77.2935V7.448H69.5175V9.448ZM76.2935 8.448V11.04H78.2935V8.448H76.2935ZM77.2935 10.04H74.7015V12.04H77.2935V10.04ZM73.7015 11.04V13.632H75.7015V11.04H73.7015ZM74.7015 12.632H72.1095V14.632H74.7015V12.632ZM71.1095 13.632V18.816H73.1095V13.632H71.1095ZM72.1095 19.816H74.7015V17.816H72.1095V19.816ZM73.7015 18.816V24H75.7015V18.816H73.7015ZM74.7015 23H69.5175V25H74.7015V23ZM70.5175 24V21.408H68.5175V24H70.5175ZM69.5175 20.408H66.9255V22.408H69.5175V20.408ZM67.9255 21.408V18.816H65.9255V21.408H67.9255ZM66.9255 17.816H64.3335V19.816H66.9255V17.816ZM63.3335 18.816V21.408H65.3335V18.816H63.3335ZM64.3335 20.408H61.7415V22.408H64.3335V20.408ZM60.7415 21.408V24H62.7415V21.408H60.7415ZM61.7415 23H56.5575V25H61.7415V23ZM57.5575 24V18.816H55.5575V24H57.5575ZM56.5575 19.816H59.1495V17.816H56.5575V19.816ZM60.1495 18.816V13.632H58.1495V18.816H60.1495ZM59.1495 12.632H56.5575V14.632H59.1495V12.632ZM57.5575 13.632V11.04H55.5575V13.632H57.5575ZM56.5575 10.04H53.9655V12.04H56.5575V10.04ZM54.9655 11.04V8.448H52.9655V11.04H54.9655ZM53.9655 9.448H61.7415V7.448H53.9655V9.448ZM62.7415 8.448V3.264H60.7415V8.448H62.7415ZM61.7415 4.264H64.3335V2.264H61.7415V4.264ZM65.3335 3.264V0.672H63.3335V3.264H65.3335Z" fill="black" mask="url(#path-14-outside-3_0_1)"/>
<path d="M167.542 21.0727C165.793 19.2203 161 19 161 19C161 19 165.793 18.7797 167.542 16.9273C169.292 15.0749 169.5 10 169.5 10C169.5 10 169.708 15.0749 171.458 16.9273C173.207 18.7797 178 19 178 19C178 19 173.207 19.2203 171.458 21.0727C169.708 22.9251 169.5 28 169.5 28C169.5 28 169.292 22.9251 167.542 21.0727Z" fill="white" stroke="black" stroke-width="0.7"/>
<path d="M10.1894 65.9376C7.14882 63.4424 0.949074 64.685 0.949074 64.685C0.949074 64.685 6.95548 62.7091 8.37041 59.0391C9.78533 55.3691 7.8235 46.8541 7.8235 46.8541C7.8235 46.8541 10.3152 55.2294 13.3558 57.7246C16.3963 60.2198 22.5961 58.9772 22.5961 58.9772C22.5961 58.9772 16.5897 60.953 15.1747 64.6231C13.7598 68.2931 15.7216 76.8081 15.7216 76.8081C15.7216 76.8081 13.2299 68.4328 10.1894 65.9376Z" fill="black"/>
<path d="M7.44837 83.7779C6.00977 81.8518 2.14897 81.6808 2.14897 81.6808C2.14897 81.6808 6.00248 81.3884 7.37975 79.418C8.75702 77.4476 8.84047 72.1077 8.84047 72.1077C8.84047 72.1077 9.09191 77.4424 10.5305 79.3684C11.9691 81.2945 15.8299 81.4655 15.8299 81.4655C15.8299 81.4655 11.9764 81.7579 10.5991 83.7283C9.22185 85.6987 9.13841 91.0386 9.13841 91.0386C9.13841 91.0386 8.88696 85.7039 7.44837 83.7779Z" stroke="black" stroke-width="0.7"/>
</svg>
