<svg width="168" height="54" viewBox="0 0 168 54" fill="none" xmlns="http://www.w3.org/2000/svg">
<mask id="path-1-inside-1_323_838" fill="white">
<path fill-rule="evenodd" clip-rule="evenodd" d="M77.9609 0H52.4522L48.097 4.09835H48V4.18964V46.9608C48 50.8486 51.1517 54.0004 55.0396 54.0004H113.128C117.016 54.0004 120.168 50.8486 120.168 46.9608V11.1379C120.168 7.25008 117.016 4.09835 113.128 4.09835H82.6747L77.9609 0Z"/>
</mask>
<path fill-rule="evenodd" clip-rule="evenodd" d="M77.9609 0H52.4522L48.097 4.09835H48V4.18964V46.9608C48 50.8486 51.1517 54.0004 55.0396 54.0004H113.128C117.016 54.0004 120.168 50.8486 120.168 46.9608V11.1379C120.168 7.25008 117.016 4.09835 113.128 4.09835H82.6747L77.9609 0Z" fill="#FFF382"/>
<path d="M52.4522 0V-0.782178H52.1421L51.9162 -0.569626L52.4522 0ZM77.9609 0L78.4741 -0.590278L78.2534 -0.782178H77.9609V0ZM48.097 4.09835V4.88052H48.4072L48.633 4.66797L48.097 4.09835ZM48 4.09835V3.31617H47.2178V4.09835H48ZM82.6747 4.09835L82.1615 4.68862L82.3823 4.88052H82.6747V4.09835ZM52.4522 0.782178H77.9609V-0.782178H52.4522V0.782178ZM48.633 4.66797L52.9883 0.569626L51.9162 -0.569626L47.561 3.52872L48.633 4.66797ZM48 4.88052H48.097V3.31617H48V4.88052ZM48.7822 4.18964V4.09835H47.2178V4.18964H48.7822ZM48.7822 46.9608V4.18964H47.2178V46.9608H48.7822ZM55.0396 53.2182C51.5837 53.2182 48.7822 50.4166 48.7822 46.9608H47.2178C47.2178 51.2806 50.7198 54.7825 55.0396 54.7825V53.2182ZM113.128 53.2182H55.0396V54.7825H113.128V53.2182ZM119.386 46.9608C119.386 50.4166 116.584 53.2182 113.128 53.2182V54.7825C117.448 54.7825 120.95 51.2806 120.95 46.9608H119.386ZM119.386 11.1379V46.9608H120.95V11.1379H119.386ZM113.128 4.88052C116.584 4.88052 119.386 7.68207 119.386 11.1379H120.95C120.95 6.8181 117.448 3.31617 113.128 3.31617V4.88052ZM82.6747 4.88052H113.128V3.31617H82.6747V4.88052ZM77.4477 0.590278L82.1615 4.68862L83.1879 3.50807L78.4741 -0.590278L77.4477 0.590278Z" fill="black" mask="url(#path-1-inside-1_323_838)"/>
<mask id="path-3-inside-2_323_838" fill="white">
<path fill-rule="evenodd" clip-rule="evenodd" d="M72.7073 29.0251C71.641 27.754 71 26.1211 71 24.34C71 20.2862 74.3209 17 78.4174 17C80.633 17 82.6217 17.9613 83.9809 19.4854C85.34 17.9613 87.3287 17 89.5444 17C93.6409 17 96.9618 20.2862 96.9618 24.34C96.9618 26.1211 96.3207 27.754 95.2545 29.0251H95.2748L83.9802 41.9873L72.6855 29.0251H72.7073Z"/>
</mask>
<path fill-rule="evenodd" clip-rule="evenodd" d="M72.7073 29.0251C71.641 27.754 71 26.1211 71 24.34C71 20.2862 74.3209 17 78.4174 17C80.633 17 82.6217 17.9613 83.9809 19.4854C85.34 17.9613 87.3287 17 89.5444 17C93.6409 17 96.9618 20.2862 96.9618 24.34C96.9618 26.1211 96.3207 27.754 95.2545 29.0251H95.2748L83.9802 41.9873L72.6855 29.0251H72.7073Z" fill="url(#paint0_linear_323_838)"/>
<path d="M72.7073 29.0251V29.8051H74.3796L73.3049 28.5238L72.7073 29.0251ZM83.9809 19.4854L83.3987 20.0045L83.9809 20.6574L84.563 20.0045L83.9809 19.4854ZM95.2545 29.0251L94.6569 28.5238L93.5822 29.8051H95.2545V29.0251ZM95.2748 29.0251L95.8629 29.5375L96.989 28.2451H95.2748V29.0251ZM83.9802 41.9873L83.3922 42.4997L83.9802 43.1746L84.5683 42.4997L83.9802 41.9873ZM72.6855 29.0251V28.2451H70.9712L72.0974 29.5375L72.6855 29.0251ZM73.3049 28.5238C72.3515 27.3873 71.78 25.9302 71.78 24.34H70.22C70.22 26.312 70.9306 28.1207 72.1097 29.5264L73.3049 28.5238ZM71.78 24.34C71.78 20.7247 74.7439 17.78 78.4174 17.78V16.22C73.8978 16.22 70.22 19.8478 70.22 24.34H71.78ZM78.4174 17.78C80.4029 17.78 82.1823 18.6405 83.3987 20.0045L84.563 18.9663C83.0611 17.2821 80.8631 16.22 78.4174 16.22V17.78ZM84.563 20.0045C85.7794 18.6405 87.5589 17.78 89.5444 17.78V16.22C87.0986 16.22 84.9006 17.2821 83.3987 18.9663L84.563 20.0045ZM89.5444 17.78C93.2178 17.78 96.1818 20.7247 96.1818 24.34H97.7418C97.7418 19.8478 94.0639 16.22 89.5444 16.22V17.78ZM96.1818 24.34C96.1818 25.9302 95.6102 27.3873 94.6569 28.5238L95.8521 29.5264C97.0312 28.1207 97.7418 26.312 97.7418 24.34H96.1818ZM95.2748 28.2451H95.2545V29.8051H95.2748V28.2451ZM84.5683 42.4997L95.8629 29.5375L94.6868 28.5127L83.3922 41.4749L84.5683 42.4997ZM72.0974 29.5375L83.3922 42.4997L84.5683 41.4749L73.2735 28.5127L72.0974 29.5375ZM72.7073 28.2451H72.6855V29.8051H72.7073V28.2451Z" fill="black" mask="url(#path-3-inside-2_323_838)"/>
<circle cx="31" cy="29" r="2.75" fill="white" stroke="black" stroke-width="0.5"/>
<circle cx="17" cy="29" r="2.75" fill="white" stroke="black" stroke-width="0.5"/>
<circle cx="3" cy="29" r="2.75" fill="white" stroke="black" stroke-width="0.5"/>
<circle cx="165" cy="29" r="2.75" fill="white" stroke="black" stroke-width="0.5"/>
<circle cx="151" cy="29" r="2.75" fill="white" stroke="black" stroke-width="0.5"/>
<circle cx="137" cy="29" r="2.75" fill="white" stroke="black" stroke-width="0.5"/>
<defs>
<linearGradient id="paint0_linear_323_838" x1="83.9809" y1="17" x2="83.9809" y2="41.9873" gradientUnits="userSpaceOnUse">
<stop stop-color="#FF8CAF"/>
<stop offset="1" stop-color="white"/>
</linearGradient>
</defs>
</svg>
